<?xml version="1.0" standalone="no"?>
<!DOCTYPE svg PUBLIC "-//W3C//DTD SVG 20010904//EN"
 "http://www.w3.org/TR/2001/REC-SVG-20010904/DTD/svg10.dtd">
<svg version="1.0" xmlns="http://www.w3.org/2000/svg"
 width="512.000000pt" height="512.000000pt" viewBox="0 0 512.000000 512.000000"
 preserveAspectRatio="xMidYMid meet">
<metadata>
Created by potrace 1.14, written by Peter Selinger 2001-2017
</metadata>
<g transform="translate(0.000000,512.000000) scale(0.100000,-0.100000)"
fill="#000000" stroke="none">
<path d="M2587 4564 c-1 -1 -51 -4 -112 -8 -60 -3 -121 -8 -135 -10 -22 -4
-96 -14 -125 -18 -5 0 -59 -14 -120 -29 -749 -195 -1313 -772 -1489 -1524 -62
-262 -69 -576 -20 -833 89 -466 334 -889 685 -1184 24 -21 51 -44 59 -52 75
-70 473 -296 522 -296 8 0 18 -4 24 -9 25 -24 273 -89 425 -112 193 -28 441
-28 609 1 157 28 210 41 334 82 691 228 1210 811 1360 1526 8 37 18 90 21 118
4 27 9 60 11 74 9 46 11 334 3 405 -19 173 -41 287 -74 395 -2 6 -7 19 -29 85
-10 28 -19 59 -22 69 -8 39 -135 290 -190 374 -210 324 -489 572 -829 737
-271 131 -543 197 -863 208 -24 1 -44 1 -45 1z"/>
</g>
</svg>
